<?xml version="1.0" encoding="UTF-8" standalone="no"?><!DOCTYPE svg PUBLIC "-//W3C//DTD SVG 1.1//EN" "http://www.w3.org/Graphics/SVG/1.1/DTD/svg11.dtd"><svg width="100%" height="100%" viewBox="0 0 774 773" version="1.1" xmlns="http://www.w3.org/2000/svg" xmlns:xlink="http://www.w3.org/1999/xlink" xml:space="preserve" xmlns:serif="http://www.serif.com/" style="fill-rule:evenodd;clip-rule:evenodd;stroke-linejoin:round;stroke-miterlimit:2;"><g><g><path d="M463.388,102.481c6.655,5.969 12.964,11.818 20.148,18.476c-9.149,-2.535 -17.003,-4.956 -24.984,-6.837c-5.421,-1.277 -10.999,-2.326 -16.545,-2.551c-14.084,-0.57 -28.32,-1.021 -41.802,3.943c-10.222,3.764 -20.673,7.539 -29.932,13.118c-10.297,6.205 -19.929,13.837 -28.831,21.964c-15.121,13.805 -27.972,29.837 -38.432,47.362c-9.939,16.653 -18.728,34.067 -26.953,51.646c-6.802,14.539 -12.661,29.599 -17.799,44.813c-4.797,14.203 -8.446,28.828 -11.947,43.423c-3.17,13.214 -5.785,26.585 -8.021,39.991c-1.544,9.254 -2.371,18.667 -2.882,28.044c-0.473,8.67 -0.101,17.386 -0.751,26.109c-5.561,-12.303 -8.231,-25.155 -9.144,-38.365c-0.57,-8.254 -1.5,-16.588 -0.931,-24.794c0.989,-14.266 2.836,-28.484 4.668,-42.677c1.155,-8.943 2.478,-17.914 4.562,-26.674c2.265,-9.524 5.4,-18.849 8.336,-28.203c3.375,-10.754 6.437,-21.648 10.571,-32.111c4.562,-11.544 9.847,-22.839 15.437,-33.93c6.342,-12.583 12.917,-25.095 20.223,-37.134c8.264,-13.618 16.875,-27.113 28.206,-38.526c8.992,-9.056 17.587,-18.611 27.328,-26.79c9.961,-8.365 21.419,-14.814 33.749,-19.315c14.294,-5.217 28.802,-6.956 43.857,-2.952c14.139,3.761 26.93,9.992 38.498,18.846c1.119,0.856 2.021,1.994 3.369,3.122Z" style="fill:#e47320;fill-rule:nonzero;"/><path d="M346.695,567.533c-10.548,3.666 -20.61,7.584 -30.883,10.831c-9.986,3.156 -20.052,6.441 -30.335,8.169c-10.466,1.758 -21.537,3.472 -30.943,-4.072c-1.49,-1.195 -2.726,-3.424 -2.981,-5.322c-1.25,-9.321 -2.627,-18.671 -3.015,-28.049c-0.505,-12.235 -0.373,-24.512 -0.061,-36.76c0.429,-16.84 0.848,-33.702 2.083,-50.494c1.147,-15.593 3.004,-31.159 5.237,-46.638c1.286,-8.913 3.582,-17.729 6.058,-26.408c3.615,-12.669 7.507,-25.278 11.872,-37.704c2.059,-5.863 5.492,-11.244 8.303,-16.843c0.483,0.208 0.966,0.416 1.45,0.625c-0.974,2.345 -2.048,4.654 -2.906,7.041c-6.086,16.927 -10.113,34.311 -11.075,52.309c-1.08,20.208 -2.842,40.433 -2.687,60.638c0.145,18.959 2.234,37.915 3.797,56.846c0.985,11.933 2.508,23.824 3.919,35.719c0.966,8.145 5.537,12.51 13.41,12.804c9.826,0.366 20.091,0.297 29.506,-2.138c17.245,-4.462 33.871,-11.267 51.014,-16.193c12.444,-3.576 25.278,-5.832 37.992,-8.409c5.149,-1.044 10.451,-1.986 15.669,-1.913c12.209,0.171 24.239,1.975 35.82,6.095c0.707,0.252 1.293,0.845 1.433,0.939c-9.906,1.252 -20.028,2.237 -30.038,3.895c-7.085,1.174 -14.149,2.848 -20.996,5.013c-20.476,6.472 -40.84,13.295 -61.642,20.023Z" style="fill:#e47320;fill-rule:nonzero;"/><path d="M481.576,232.505c7.619,-14.99 13.464,-30.192 15.833,-46.566c0.845,-5.837 1.602,-11.687 2.366,-17.295c2.949,8.385 2.01,27.759 -0.725,39.839c-3.682,16.263 -10.947,30.904 -19.281,45.001c-3.921,6.633 -9.461,12.448 -14.908,18.007c-8.142,8.309 -17.628,14.733 -28.618,19.073c-7.917,3.126 -15.15,1.302 -22.08,-4.679c-4.238,-3.657 -8.873,-7.602 -14.026,-9.277c-8.006,-2.601 -13.308,2.59 -17.642,9.003c-5.283,7.819 -11.687,14.952 -16.339,23.105c-4.507,7.899 -4.909,16.887 -2.163,25.802c4.163,13.519 14.244,22.038 25.249,29.643c11.388,7.87 22.949,15.494 34.555,23.04c7.515,4.886 15.544,9.025 22.807,14.244c10.16,7.3 21.065,13.972 26.285,26.392c2.849,6.778 2.741,13.421 -0.916,19.425c-3.982,6.539 -8.738,12.505 -16.414,15.662c-4.767,1.961 -9.043,5.246 -13.276,8.301c-1.345,0.971 -2.175,3.025 -2.636,4.745c-0.441,1.644 -0.095,3.499 -0.095,5.651c-5.586,-3.968 -5.49,-6.668 -0.719,-12.179c3.798,-4.388 7.179,-9.134 10.89,-13.599c6.133,-7.38 5.098,-16.039 4.192,-24.487c-1.321,-12.315 -10.725,-19.108 -19.424,-25.919c-9.986,-7.817 -20.613,-14.81 -30.875,-22.281c-9.335,-6.796 -19.094,-13.149 -27.65,-20.83c-6.845,-6.145 -12.995,-13.458 -17.951,-21.213c-6.456,-10.102 -6.042,-20.946 1.611,-30.691c10.435,-13.287 21.023,-26.457 31.739,-39.519c3.9,-4.754 8.405,-4.595 14.68,-0.502c3.857,2.516 8.099,4.473 11.812,7.172c7.251,5.269 14.535,3.941 21.95,0.774c11.988,-5.12 20.784,-13.871 27.827,-24.603c4.579,-6.977 9.188,-13.933 13.94,-21.239Z" style="fill:#e47320;fill-rule:nonzero;"/><path d="M356.153,259.106c-9.21,13.084 -14.829,27.282 -17.566,42.586c-1.646,9.204 -2.735,18.508 -4.138,27.757c-0.165,1.085 -0.732,2.109 -1.277,3.616c-4.757,-17.263 -7.887,-34.229 -6.606,-51.616c0.487,-6.612 2.616,-13.115 4.138,-19.635c2.802,-12 11.182,-20.398 20.222,-27.413c7.228,-5.609 16.108,-9.371 24.694,-12.881c13.812,-5.646 27.989,-10.396 42.003,-15.551c6.454,-2.374 12.928,-4.7 19.318,-7.236c14.59,-5.789 27.538,-14.073 38.285,-25.627c2.54,-2.73 5.099,-5.443 8.335,-8.895c-0.572,7.106 -3.69,12.413 -6.904,17.433c-9.494,14.827 -23.836,23.049 -39.986,28.953c-14.376,5.255 -28.893,10.394 -42.605,17.102c-9.79,4.789 -18.663,11.69 -27.324,18.445c-4.195,3.272 -6.964,8.374 -10.588,12.962Z" style="fill:#e47320;fill-rule:nonzero;"/><path d="M456.968,488.907c16.235,7.197 31.938,15.144 46.052,26.262c9.921,7.815 19.192,16.106 26.865,26.05c8.43,10.926 14.44,22.988 17.792,36.616c4.921,20.008 -0.223,38.152 -8.694,55.763c-10.405,21.631 -26.32,39.007 -43.983,54.912c-1.228,1.106 -2.225,2.465 -3.405,3.63c-1.098,1.085 -2.297,2.069 -4.164,2.547c3.755,-5.221 8.133,-10.108 11.14,-15.729c6.98,-13.046 14.105,-26.121 19.623,-39.808c4.181,-10.372 7.411,-21.566 8.499,-32.646c1.743,-17.739 1.639,-35.46 -5.235,-52.836c-6.458,-16.324 -16.591,-29.435 -29.266,-40.925c-10.509,-9.528 -22.848,-16.35 -35.487,-23.077c0.01,-0.473 0.263,-0.761 0.263,-0.761Z" style="fill:#e47320;fill-rule:nonzero;"/><path d="M463.863,578.475c-3.831,2.088 -7.227,4.172 -10.146,5.964c-0.543,-3.872 2.595,-10.382 7.005,-12.727c5.167,-2.748 11.599,-1.966 16.072,1.482c10.132,7.811 11.401,18.393 9.933,30.013c-0.553,4.378 -0.719,8.806 -1.061,13.211c-0.42,-0.003 -0.839,-0.006 -1.259,-0.009c0,-4.279 0.065,-8.56 -0.014,-12.837c-0.146,-7.879 -2.444,-14.952 -7.401,-21.255c-3.483,-4.429 -8.062,-3.909 -13.128,-3.841Z" style="fill:#e47320;fill-rule:nonzero;"/><path d="M430.386,620.62c-6.49,-10.728 -4.293,-19.366 5.483,-22.898c-7.624,18.299 1.419,22.579 13.536,27.097c-0.137,0.471 -0.273,0.941 -0.41,1.412c-6.114,-1.775 -12.228,-3.549 -18.609,-5.61Z" style="fill:#e47320;fill-rule:nonzero;"/><path d="M519.687,499.158c4.67,4.785 9.051,9.356 13.433,13.927c-0.167,0.094 -0.335,0.188 -0.502,0.282c-13.178,-8.6 -26.356,-17.2 -39.829,-25.992c10.002,1.526 18.92,5.05 26.898,11.783Z" style="fill:#e47320;fill-rule:nonzero;"/><path d="M456.585,489.336c-0.687,0.044 -1.244,-0.054 -1.801,-0.152c0.006,-0.162 0.012,-0.323 0.018,-0.485c0.548,-0.036 1.097,-0.071 1.906,0.05c0.26,0.157 0.007,0.445 -0.123,0.586Z" style="fill:#e47320;fill-rule:nonzero;"/></g></g></svg>