<?xml version="1.0" encoding="UTF-8" standalone="no"?>
<!DOCTYPE svg PUBLIC "-//W3C//DTD SVG 1.1//EN" "http://www.w3.org/Graphics/SVG/1.1/DTD/svg11.dtd">
<svg width="100%" height="100%" viewBox="0 0 774 773" version="1.1" xmlns="http://www.w3.org/2000/svg" xmlns:xlink="http://www.w3.org/1999/xlink" xml:space="preserve" xmlns:serif="http://www.serif.com/" style="fill-rule:evenodd;clip-rule:evenodd;stroke-linecap:round;stroke-linejoin:round;stroke-miterlimit:1.5;">
    <g transform="matrix(1,0,0,1,10.224761,0)">
        <g transform="matrix(2.751042,0,0,2.751042,-981.072561,-340.941693)">
            <circle cx="493.576" cy="264.424" r="129.576" style="fill:rgb(228,115,32);stroke:rgb(228,115,32);stroke-width:0.36px;"/>
        </g>
        <g transform="matrix(1,0,0,1,-7.739754,1.447416)">
            <path d="M460.903,101.034C467.558,107.003 473.867,112.851 481.051,119.51C471.902,116.975 464.048,114.554 456.067,112.674C450.646,111.396 445.068,110.347 439.522,110.123C425.438,109.553 411.203,109.101 397.72,114.065C387.498,117.829 377.047,121.604 367.788,127.184C357.491,133.389 347.859,141.021 338.957,149.148C323.836,162.953 310.985,178.984 300.526,196.509C290.587,213.162 281.798,230.576 273.573,248.155C266.771,262.694 260.912,277.755 255.774,292.969C250.978,307.171 247.328,321.796 243.827,336.392C240.658,349.606 238.042,362.977 235.806,376.383C234.262,385.637 233.435,395.05 232.924,404.427C232.45,413.097 232.823,421.812 232.173,430.536C226.612,418.232 223.941,405.381 223.029,392.17C222.459,383.916 221.529,375.582 222.098,367.377C223.088,353.111 224.934,338.893 226.766,324.7C227.921,315.757 229.245,306.786 231.328,298.026C233.594,288.502 236.728,279.177 239.664,269.822C243.039,259.068 246.101,248.174 250.236,237.711C254.797,226.167 260.083,214.872 265.673,203.781C272.015,191.198 278.59,178.686 285.896,166.647C294.16,153.029 302.771,139.534 314.102,128.122C323.093,119.065 331.689,109.511 341.429,101.332C351.391,92.967 362.848,86.517 375.178,82.017C389.472,76.8 403.98,75.061 419.035,79.065C433.174,82.826 445.965,89.057 457.534,97.911C458.652,98.767 459.555,99.906 460.903,101.034Z" style="fill:white;fill-rule:nonzero;"/>
            <path d="M344.21,566.086C333.662,569.752 323.6,573.669 313.327,576.917C303.341,580.073 293.274,583.358 282.991,585.085C272.525,586.843 261.454,588.557 252.049,581.013C250.558,579.818 249.322,577.59 249.068,575.691C247.818,566.371 246.441,557.021 246.053,547.642C245.548,535.407 245.68,523.13 245.992,510.882C246.421,494.042 246.84,477.18 248.075,460.388C249.222,444.794 251.079,429.228 253.312,413.75C254.598,404.837 256.894,396.02 259.371,387.342C262.986,374.673 266.878,362.064 271.243,349.637C273.302,343.774 276.735,338.393 279.546,332.794C280.029,333.002 280.512,333.21 280.995,333.419C280.021,335.763 278.947,338.073 278.089,340.459C272.004,357.386 267.976,374.77 267.014,392.768C265.934,412.976 264.172,433.201 264.327,453.406C264.472,472.365 266.561,491.321 268.124,510.252C269.109,522.185 270.632,534.076 272.043,545.971C273.009,554.115 277.58,558.481 285.452,558.774C295.278,559.14 305.544,559.072 314.959,556.636C332.204,552.174 348.829,545.369 365.972,540.442C378.416,536.866 391.25,534.611 403.965,532.034C409.114,530.99 414.416,530.048 419.633,530.121C431.842,530.292 443.872,532.096 455.453,536.216C456.16,536.468 456.746,537.061 456.886,537.155C446.98,538.407 436.858,539.392 426.848,541.05C419.763,542.224 412.699,543.898 405.852,546.063C385.376,552.535 365.011,559.358 344.21,566.086Z" style="fill:white;fill-rule:nonzero;"/>
            <path d="M479.091,231.058C486.71,216.068 492.555,200.866 494.924,184.492C495.768,178.655 496.525,172.805 497.29,167.197C500.239,175.583 499.3,194.956 496.565,207.036C492.883,223.299 485.618,237.94 477.284,252.038C473.363,258.67 467.823,264.486 462.376,270.044C454.234,278.353 444.748,284.778 433.758,289.117C425.841,292.243 418.607,290.419 411.678,284.438C407.44,280.781 402.804,276.835 397.652,275.161C389.646,272.56 384.343,277.751 380.01,284.164C374.726,291.983 368.323,299.116 363.671,307.269C359.164,315.169 358.762,324.156 361.508,333.071C365.671,346.59 375.752,355.108 386.757,362.714C398.145,370.584 409.706,378.207 421.312,385.754C428.827,390.64 436.856,394.779 444.119,399.998C454.279,407.298 465.185,413.97 470.405,426.39C473.254,433.168 473.145,439.81 469.489,445.815C465.507,452.354 460.751,458.32 453.075,461.477C448.308,463.437 444.033,466.723 439.799,469.778C438.454,470.748 437.624,472.802 437.163,474.523C436.722,476.167 437.068,478.022 437.068,480.174C431.482,476.205 431.578,473.506 436.349,467.995C440.147,463.607 443.528,458.861 447.239,454.395C453.372,447.015 452.338,438.357 451.432,429.909C450.111,417.594 440.707,410.8 432.007,403.99C422.022,396.173 411.394,389.18 401.132,381.709C391.798,374.913 382.038,368.56 373.483,360.879C366.638,354.734 360.488,347.42 355.532,339.666C349.075,329.564 349.49,318.72 357.143,308.974C367.578,295.687 378.166,282.517 388.882,269.456C392.783,264.702 397.287,264.86 403.562,268.953C407.419,271.47 411.661,273.427 415.374,276.125C422.625,281.394 429.909,280.066 437.324,276.899C449.312,271.779 458.109,263.028 465.151,252.297C469.73,245.32 474.34,238.363 479.091,231.058Z" style="fill:white;fill-rule:nonzero;"/>
            <path d="M353.668,257.658C344.458,270.743 338.84,284.94 336.102,300.244C334.456,309.449 333.367,318.752 331.965,328.002C331.8,329.087 331.232,330.111 330.687,331.617C325.93,314.354 322.801,297.388 324.081,280.001C324.568,273.39 326.697,266.886 328.219,260.366C331.021,248.366 339.401,239.969 348.442,232.953C355.669,227.344 364.55,223.582 373.135,220.072C386.947,214.425 401.125,209.676 415.138,204.521C421.592,202.148 428.066,199.821 434.456,197.286C449.046,191.497 461.995,183.212 472.741,171.658C475.281,168.928 477.84,166.216 481.077,162.763C480.504,169.869 477.387,175.176 474.172,180.196C464.679,195.023 450.336,203.245 434.186,209.149C419.81,214.405 405.293,219.543 391.581,226.251C381.791,231.04 372.918,237.941 364.257,244.696C360.061,247.969 357.293,253.071 353.668,257.658Z" style="fill:white;fill-rule:nonzero;"/>
            <path d="M454.483,487.459C470.719,494.656 486.421,502.603 500.535,513.722C510.456,521.537 519.727,529.828 527.4,539.772C535.83,550.697 541.84,562.76 545.192,576.388C550.113,596.396 544.969,614.54 536.497,632.151C526.092,653.782 510.177,671.158 492.514,687.063C491.286,688.17 490.289,689.529 489.11,690.694C488.011,691.779 486.813,692.763 484.946,693.241C488.701,688.021 493.079,683.133 496.086,677.512C503.066,664.466 510.191,651.391 515.709,637.704C519.89,627.332 523.12,616.139 524.208,605.059C525.951,587.32 525.847,569.599 518.973,552.223C512.515,535.899 502.382,522.788 489.707,511.297C479.198,501.77 466.859,494.948 454.22,488.22C454.23,487.747 454.483,487.459 454.483,487.459Z" style="fill:white;fill-rule:nonzero;"/>
            <path d="M461.378,577.028C457.547,579.116 454.151,581.2 451.232,582.992C450.689,579.12 453.827,572.61 458.237,570.265C463.404,567.517 469.836,568.299 474.308,571.747C484.441,579.557 485.71,590.14 484.241,601.76C483.688,606.138 483.522,610.565 483.18,614.97C482.76,614.967 482.341,614.964 481.921,614.961C481.921,610.682 481.986,606.401 481.907,602.124C481.761,594.244 479.463,587.172 474.506,580.869C471.023,576.44 466.444,576.959 461.378,577.028Z" style="fill:white;fill-rule:nonzero;"/>
            <path d="M427.901,619.173C421.411,608.444 423.607,599.807 433.384,596.274C425.76,614.574 434.803,618.853 446.92,623.371C446.783,623.842 446.647,624.312 446.51,624.783C440.396,623.008 434.282,621.234 427.901,619.173Z" style="fill:white;fill-rule:nonzero;"/>
            <path d="M517.202,497.711C521.872,502.496 526.253,507.067 530.635,511.638C530.467,511.732 530.3,511.826 530.132,511.92C516.954,503.32 503.776,494.72 490.304,485.928C500.305,487.454 509.224,490.978 517.202,497.711Z" style="fill:white;fill-rule:nonzero;"/>
            <path d="M454.1,487.889C453.413,487.932 452.856,487.835 452.299,487.737C452.305,487.575 452.311,487.414 452.318,487.252C452.866,487.217 453.414,487.181 454.223,487.302C454.483,487.459 454.23,487.747 454.1,487.889Z" style="fill:white;fill-rule:nonzero;"/>
        </g>
    </g>
</svg>
